@startuml

!define complexType class

class antigenSupportingData {
}

class immunity {
    + clinicalHistory : 0..*
    + dateOfBirth : 0..*
}

class clinicalHistory {
    + guidelineCode :  String
    + guidelineTitle :  String
}

class dateOfBirth {
    + immunityBirthDate :  String
    + birthCountry :  String
    + exclusion : 0..*
}

class exclusion {
    + exclusionCode :  String
    + exclusionTitle :  String
}

class contraindications {
    + vaccineGroup : 0..1
    + vaccine : 0..1
}

class vaccineGroup {
    + contraindication : 0..*
}

class contraindication {
    + observationCode :  String
    + observationTitle :  String
    + contraindicationText :  String
    + contraindicationGuidance :  String
    + beginAge :  String
    + endAge :  String
}

class vaccine {
    + contraindication : 0..*
}

class contraindicatedVaccine {
    + vaccineType :  String
    + cvx :  String
    + beginAge :  String
    + endAge :  String
}

class series {
    + seriesName :  String
    + targetDisease :  String
    + vaccineGroup :  String
    + seriesAdminGuidance : 1..*
    + seriesType :  String
    + equivalentSeriesGroups :  String
    + requiredGender : 1..*
    + selectSeries : 1
    + indication : 1..*
    + seriesDose : 1..*
}

class selectSeries {
    + defaultSeries :  String
    + productPath :  String
    + seriesGroupName :  String
    + seriesGroup :  String
    + seriesPriority :  String
    + seriesPreference :  String
    + minAgeToStart :  String
    + maxAgeToStart :  String
}

class indication {
    + observationCode : 0..1
    + description :  String
    + beginAge :  String
    + endAge :  String
    + guidance :  String
}

class observationCode {
    + text :  String
    + code :  String
}

class seriesDose {
    + doseNumber :  String
    + age : 0..*
    + interval : 0..*
    + allowableInterval : 0..*
    + preferableVaccine : 0..*
    + allowableVaccine : 0..*
    + inadvertentVaccine : 0..*
    + conditionalSkip : 0..*
    + recurringDose :  String
    + seasonalRecommendation : 0..1
}

class age {
    + absMinAge :  String
    + minAge :  String
    + earliestRecAge :  String
    + latestRecAge :  String
    + maxAge :  String
    + effectiveDate :  String
    + cessationDate :  String
}

class interval {
    + fromPrevious :  String
    + fromTargetDose :  String
    + fromMostRecent :  String
    + fromRelevantObs : 0..1
    + absMinInt :  String
    + minInt :  String
    + earliestRecInt :  String
    + latestRecInt :  String
    + intervalPriority :  String
    + effectiveDate :  String
    + cessationDate :  String
}

class allowableInterval {
    + fromPrevious :  String
    + fromTargetDose :  String
    + absMinInt :  String
    + effectiveDate :  String
    + cessationDate :  String
}

class preferableVaccine {
    + vaccineType :  String
    + cvx :  String
    + beginAge :  String
    + endAge :  String
    + tradeName :  String
    + mvx :  String
    + volume :  String
    + forecastVaccineType :  String
}

class allowableVaccine {
    + vaccineType :  String
    + cvx :  String
    + beginAge :  String
    + endAge :  String
}

class inadvertentVaccine {
    + vaccineType :  String
    + cvx :  String
}

class conditionalSkip {
    + context :  String
    + setLogic :  String
    + set : 0..*
}

class set {
    + setID :  String
    + setDescription :  String
    + effectiveDate :  String
    + cessationDate :  String
    + conditionLogic :  String
    + condition : 0..*
}

class condition {
    + conditionID :  String
    + conditionType :  String
    + startDate :  String
    + endDate :  String
    + beginAge :  String
    + endAge :  String
    + interval :  String
    + doseCount :  String
    + doseType :  String
    + doseCountLogic :  String
    + vaccineTypes :  String
    + seriesGroups :  String
}

class fromRelevantObs {
    + text :  String
    + code :  String
}

class seasonalRecommendation {
    + startDate :  String
    + endDate :  String
}

antigenSupportingData --> immunity
antigenSupportingData --> contraindications
antigenSupportingData --> series
immunity --> clinicalHistory
immunity --> dateOfBirth
dateOfBirth --> exclusion
contraindications --> vaccineGroup
contraindications --> vaccine
vaccineGroup --> contraindication
vaccine --> contraindication
contraindication --> contraindicatedVaccine
series --> selectSeries
series --> indication
series --> seriesDose
indication --> observationCode
seriesDose --> age
seriesDose --> interval
seriesDose --> allowableInterval
seriesDose --> preferableVaccine
seriesDose --> allowableVaccine
seriesDose --> inadvertentVaccine
seriesDose --> conditionalSkip
seriesDose --> seasonalRecommendation
interval --> fromRelevantObs
conditionalSkip --> set
set --> condition

@enduml